# xmcd
#
# Track frame offsets:
#	183
#	11623
#	26150
#	42210
#	58918
#	106228
#	119983
#	137098
#	158433
#	172558
#	186070
#	201213
#	217993
#	235280
#	259010
#
# Disc length: 3747 seconds
#
# Revision: 0
# Processed by: cddbd v1.5.2PL0 Copyright (c) Steve Scherf et al.
# Submitted via: EasyCDDAExtractor 11.0.3.1
#
DISCID=cb0ea10f
DTITLE=The Impressions - Preacher Man - Finally Got Myself Together
DYEAR=1997
DGENRE=R&B
TTITLE0=What It Is
TTITLE1=Preacher Man
TTITLE2=Simple Message
TTITLE3=Find the Way
TTITLE4=Thin Line
TTITLE5=Colour Us All Gray (I'm Lost)
TTITLE6=I'm Loving You
TTITLE7=If It's In You To Do Wrong
TTITLE8=Finally Got Myself Together (I'm A Changed Man)
TTITLE9=I'll Always Be Here
TTITLE10=Miracle Woman
TTITLE11=We Go Back A Ways
TTITLE12=Guess What I've Got
TTITLE13=Try Me
TTITLE14=Don't Forget What I Told You
EXTD=
EXTT0=
EXTT1=
EXTT2=
EXTT3=
EXTT4=
EXTT5=
EXTT6=
EXTT7=
EXTT8=
EXTT9=
EXTT10=
EXTT11=
EXTT12=
EXTT13=
EXTT14=
PLAYORDER=
